<svg width="210" height="61" viewBox="0 0 210 61" fill="none" xmlns="http://www.w3.org/2000/svg">
<path fill-rule="evenodd" clip-rule="evenodd" d="M29.4154 12.9705C32.1557 9.46825 36.5439 7.1993 41.4899 7.1993C46.4649 7.1993 50.8754 9.49502 53.6125 13.0324C53.4959 13.1462 53.3899 13.2642 53.2938 13.382C52.7924 13.9988 52.4152 14.7934 52.113 15.6003C51.5044 17.2231 51.0402 19.3429 50.6105 21.3278L50.5723 21.5063C50.1434 23.4876 49.7448 25.3303 49.2629 26.6982C49.0464 27.3127 48.8411 27.7472 48.659 28.0254C48.469 27.7449 48.2534 27.3052 48.0253 26.6818C47.5098 25.2747 47.0763 23.3607 46.6167 21.317L46.6018 21.2501V21.25C46.1602 19.2871 45.6917 17.2043 45.1076 15.61C44.8142 14.8091 44.4542 14.0225 43.9832 13.4113C43.5211 12.8116 42.7517 12.1347 41.6266 12.1347C40.5085 12.1347 39.7356 12.8042 39.2667 13.3972C38.7867 14.0045 38.4125 14.7878 38.1042 15.5891C37.4834 17.2026 36.9758 19.3133 36.5034 21.301L36.4546 21.5063C35.9869 23.4753 35.5496 25.3162 35.0532 26.6867C34.8637 27.21 34.6849 27.6083 34.5231 27.8927C34.3649 27.6096 34.1905 27.214 34.0062 26.6951C33.53 25.3538 33.1128 23.5644 32.6648 21.6426L32.5864 21.3063C32.1222 19.3174 31.6185 17.2029 30.9889 15.5843C30.676 14.7801 30.2933 13.9928 29.7982 13.3828C29.686 13.2447 29.5586 13.1045 29.4154 12.9705ZM27.7569 15.6596C27.8874 15.9045 28.0254 16.208 28.1682 16.575C28.7132 17.976 29.175 19.8877 29.6505 21.9249L29.743 22.3219C30.1759 24.1807 30.6263 26.1144 31.1568 27.6083C31.4389 28.4028 31.7796 29.181 32.2178 29.7858C32.6322 30.3578 33.3756 31.0967 34.5186 31.0967C35.6584 31.0967 36.4036 30.3614 36.8208 29.792C37.2627 29.1886 37.609 28.4112 37.8968 27.6162C38.4486 26.0927 38.9184 24.1138 39.368 22.2199V22.2198L39.4368 21.9303C39.9212 19.8918 40.3876 17.9763 40.9286 16.5702C41.1793 15.9187 41.4139 15.4649 41.6182 15.1833C41.8118 15.4625 42.033 15.9091 42.2676 16.5493C42.7832 17.9566 43.2163 19.8705 43.676 21.9142L43.691 21.9811C44.1325 23.9441 44.601 26.027 45.1851 27.6211C45.4785 28.4223 45.8386 29.2089 46.3095 29.8199C46.7718 30.4198 47.541 31.0967 48.666 31.0967C49.797 31.0967 50.5634 30.4136 51.0202 29.8084C51.484 29.1943 51.8327 28.4051 52.1144 27.6052C52.6559 26.0687 53.0864 24.0752 53.497 22.1788V22.1787L53.5558 21.9034C53.9978 19.8622 54.422 17.9558 54.946 16.559C55.0594 16.2551 55.1712 15.996 55.2778 15.7784C56.0805 17.5265 56.5257 19.4567 56.5257 21.4857C56.5257 29.3757 49.7942 35.7721 41.4899 35.7721C33.1857 35.7721 26.4539 29.3757 26.4539 21.4857C26.4539 19.4106 26.9195 17.4388 27.7569 15.6596ZM41.4899 4.34204C31.5249 4.34204 23.4467 12.0175 23.4467 21.4857C23.4467 30.9538 31.5249 38.6292 41.4899 38.6292C51.4551 38.6292 59.5329 30.9538 59.5329 21.4857C59.5329 12.0175 51.4551 4.34204 41.4899 4.34204ZM41.8336 14.9442C41.8336 14.9445 41.8301 14.9472 41.8231 14.9511C41.8301 14.9458 41.8336 14.9438 41.8336 14.9442ZM41.418 14.9461C41.411 14.9421 41.4075 14.9393 41.4075 14.9389C41.4075 14.9385 41.4111 14.9406 41.418 14.9461ZM48.4373 28.2966C48.4373 28.2966 48.4406 28.2935 48.4471 28.2896C48.4406 28.2949 48.4373 28.2971 48.4373 28.2966ZM48.8746 28.2851C48.8815 28.2891 48.8853 28.2918 48.8853 28.2922C48.8853 28.2926 48.8815 28.2904 48.8746 28.2851ZM34.2105 28.3223C34.2104 28.3218 34.2148 28.3178 34.2234 28.3121C34.2148 28.3196 34.2105 28.3227 34.2105 28.3223ZM34.8195 28.3148C34.8281 28.3205 34.8324 28.3245 34.8324 28.3249C34.8323 28.3254 34.828 28.3227 34.8195 28.3148Z" fill="#81818B"/>
<path d="M69.4958 31.6351L65.1205 17.4144H68.953L71.5481 27.6498L74.5652 17.4144H78.8503L81.868 27.6498L84.493 17.4144H88.3255L83.9197 31.6351H79.9066L76.7078 20.9982L73.5095 31.6351H69.4958Z" fill="#81818B"/>
<path d="M93.9487 31.9793C92.6614 31.9793 91.6051 31.7877 90.7804 31.4055C89.9561 31.0042 89.3424 30.4786 88.9397 29.8287C88.5376 29.1788 88.3365 28.4621 88.3365 27.6785C88.3365 26.3597 88.8793 25.2893 89.9656 24.4674C91.0518 23.6455 92.6819 23.2346 94.8544 23.2346H98.6564V22.8905C98.6564 21.9157 98.3645 21.199 97.7812 20.7402C97.198 20.2815 96.4735 20.0522 95.6088 20.0522C94.8239 20.0522 94.1398 20.2337 93.5566 20.5969C92.9733 20.9409 92.611 21.457 92.4703 22.1451H88.6982C88.799 21.113 89.1613 20.2146 89.7844 19.45C90.4286 18.6855 91.2534 18.1025 92.2588 17.7012C93.2652 17.2807 94.3913 17.0704 95.6387 17.0704C97.7713 17.0704 99.4507 17.5769 100.678 18.5899C101.905 19.603 102.519 21.0366 102.519 22.8905V31.6351H99.2292L98.8675 29.3416C98.4249 30.1061 97.8012 30.7366 96.9969 31.2338C96.212 31.7306 95.1961 31.9793 93.9487 31.9793ZM94.8239 29.112C95.9306 29.112 96.7853 28.7678 97.3885 28.0798C98.0122 27.3919 98.4049 26.5411 98.5661 25.5282H95.2765C94.2506 25.5282 93.5167 25.7098 93.0736 26.0729C92.6315 26.4168 92.41 26.8472 92.41 27.3631C92.41 27.9175 92.6315 28.3475 93.0736 28.6532C93.5167 28.9589 94.0994 29.112 94.8239 29.112Z" fill="#81818B"/>
<path d="M108.599 31.6351L103.107 17.4144H107.15L110.952 28.1661L114.754 17.4144H118.798L113.276 31.6351H108.599Z" fill="#81818B"/>
<path d="M126.562 31.9793C125.054 31.9793 123.716 31.6732 122.549 31.0617C121.383 30.4499 120.468 29.5898 119.803 28.4811C119.139 27.3728 118.808 26.092 118.808 24.6394C118.808 23.1677 119.13 21.8584 119.773 20.7116C120.437 19.5648 121.342 18.676 122.489 18.0452C123.655 17.3954 125.024 17.0704 126.593 17.0704C128.061 17.0704 129.359 17.3762 130.486 17.9879C131.612 18.5995 132.487 19.4405 133.111 20.5109C133.754 21.5621 134.077 22.7376 134.077 24.0373C134.077 24.2476 134.066 24.4674 134.046 24.6967C134.046 24.9262 134.036 25.165 134.016 25.4135H122.64C122.72 26.5221 123.123 27.3919 123.847 28.0228C124.591 28.6532 125.487 28.9687 126.533 28.9687C127.317 28.9687 127.971 28.8063 128.494 28.4811C129.037 28.1373 129.439 27.6976 129.701 27.1622H133.624C133.342 28.0608 132.869 28.8828 132.206 29.6283C131.561 30.3543 130.757 30.9277 129.791 31.3484C128.846 31.7687 127.769 31.9793 126.562 31.9793ZM126.593 20.0522C125.648 20.0522 124.812 20.3102 124.088 20.8262C123.364 21.3232 122.901 22.0878 122.7 23.1199H130.153C130.093 22.1833 129.731 21.4379 129.067 20.8836C128.403 20.3293 127.579 20.0522 126.593 20.0522Z" fill="#81818B"/>
<path d="M136.118 31.635V10.9922H139.98V31.635H136.118Z" fill="#81818B"/>
<path d="M149.991 31.9793C148.483 31.9793 147.145 31.6732 145.978 31.0617C144.812 30.4499 143.897 29.5898 143.233 28.4811C142.568 27.3728 142.237 26.092 142.237 24.6394C142.237 23.1677 142.559 21.8584 143.202 20.7116C143.866 19.5648 144.771 18.676 145.918 18.0452C147.085 17.3954 148.453 17.0704 150.022 17.0704C151.49 17.0704 152.788 17.3762 153.915 17.9879C155.041 18.5995 155.917 19.4405 156.54 20.5109C157.183 21.5621 157.506 22.7376 157.506 24.0373C157.506 24.2476 157.495 24.4674 157.475 24.6967C157.475 24.9262 157.465 25.165 157.445 25.4135H146.069C146.149 26.5221 146.552 27.3919 147.276 28.0228C148.02 28.6532 148.916 28.9687 149.962 28.9687C150.746 28.9687 151.4 28.8063 151.923 28.4811C152.466 28.1373 152.868 27.6976 153.13 27.1622H157.053C156.771 28.0608 156.298 28.8828 155.635 29.6283C154.99 30.3543 154.186 30.9277 153.22 31.3484C152.275 31.7687 151.199 31.9793 149.991 31.9793ZM150.022 20.0522C149.077 20.0522 148.242 20.3102 147.517 20.8262C146.793 21.3232 146.331 22.0878 146.129 23.1199H153.582C153.522 22.1833 153.16 21.4379 152.496 20.8836C151.832 20.3293 151.008 20.0522 150.022 20.0522Z" fill="#81818B"/>
<path d="M165.733 31.9793C164.405 31.9793 163.238 31.7784 162.233 31.3772C161.226 30.9564 160.422 30.3831 159.818 29.6566C159.215 28.9306 158.853 28.0896 158.732 27.134H162.625C162.745 27.6878 163.068 28.1661 163.591 28.5674C164.133 28.9496 164.827 29.1408 165.672 29.1408C166.517 29.1408 167.131 28.9784 167.513 28.6532C167.915 28.3285 168.117 27.9555 168.117 27.5352C168.117 26.9234 167.835 26.5124 167.272 26.3022C166.709 26.0729 165.924 25.8532 164.918 25.6429C164.275 25.5091 163.621 25.3466 162.957 25.1555C162.293 24.9644 161.68 24.7254 161.116 24.4388C160.573 24.1329 160.13 23.7506 159.788 23.2919C159.446 22.814 159.276 22.2311 159.276 21.543C159.276 20.2815 159.798 19.2207 160.845 18.3606C161.911 17.5005 163.399 17.0704 165.31 17.0704C167.081 17.0704 168.489 17.4622 169.535 18.2459C170.601 19.0296 171.235 20.1095 171.436 21.4857H167.785C167.563 20.4344 166.728 19.9088 165.281 19.9088C164.556 19.9088 163.993 20.0426 163.591 20.3102C163.208 20.5778 163.017 20.9122 163.017 21.3136C163.017 21.7342 163.309 22.0686 163.892 22.3171C164.476 22.5656 165.25 22.7949 166.216 23.0052C167.261 23.2346 168.217 23.4926 169.082 23.7793C169.967 24.0469 170.671 24.4579 171.195 25.0122C171.718 25.5473 171.979 26.3212 171.979 27.3343C171.999 28.2139 171.757 29.0067 171.255 29.7141C170.752 30.4211 170.028 30.9754 169.082 31.3772C168.137 31.7784 167.02 31.9793 165.733 31.9793Z" fill="#81818B"/>
<path d="M180.379 31.9793C179.052 31.9793 177.885 31.7784 176.879 31.3772C175.873 30.9564 175.069 30.3831 174.465 29.6566C173.862 28.9306 173.499 28.0896 173.379 27.134H177.272C177.392 27.6878 177.714 28.1661 178.237 28.5674C178.78 28.9496 179.474 29.1408 180.319 29.1408C181.164 29.1408 181.778 28.9784 182.16 28.6532C182.562 28.3285 182.764 27.9555 182.764 27.5352C182.764 26.9234 182.482 26.5124 181.918 26.3022C181.355 26.0729 180.571 25.8532 179.565 25.6429C178.921 25.5091 178.267 25.3466 177.603 25.1555C176.94 24.9644 176.326 24.7254 175.763 24.4388C175.22 24.1329 174.777 23.7506 174.435 23.2919C174.093 22.814 173.922 22.2311 173.922 21.543C173.922 20.2815 174.445 19.2207 175.491 18.3606C176.558 17.5005 178.046 17.0704 179.957 17.0704C181.727 17.0704 183.135 17.4622 184.182 18.2459C185.247 19.0296 185.881 20.1095 186.083 21.4857H182.431C182.21 20.4344 181.375 19.9088 179.927 19.9088C179.202 19.9088 178.639 20.0426 178.237 20.3102C177.855 20.5778 177.664 20.9122 177.664 21.3136C177.664 21.7342 177.955 22.0686 178.539 22.3171C179.122 22.5656 179.896 22.7949 180.862 23.0052C181.908 23.2346 182.864 23.4926 183.729 23.7793C184.614 24.0469 185.318 24.4579 185.841 25.0122C186.364 25.5473 186.626 26.3212 186.626 27.3343C186.646 28.2139 186.404 29.0067 185.901 29.7141C185.398 30.4211 184.675 30.9754 183.729 31.3772C182.783 31.7784 181.667 31.9793 180.379 31.9793Z" fill="#81818B"/>
</svg>
